Coordinates
version=1
nRows=12
nColumns=24
inDegrees=yes

Units are S.I. units (second, meters, Newtons, ...)
If the header above contains a line with 'inDegrees', this indicates whether rotational values are in degrees (yes) or radians (no).

endheader
time	pelvis_tilt	pelvis_list	pelvis_rotation	pelvis_tx	pelvis_ty	pelvis_tz	lumbar_extension	lumbar_bending	lumbar_rotation	arm_flex_r	arm_add_r	arm_rot_r	elbow_flex_r	pro_sup_r	wrist_flex_r	wrist_dev_r	arm_flex_l	arm_add_l	arm_rot_l	elbow_flex_l	pro_sup_l	wrist_flex_l	wrist_dev_l
     11.00800000	    -14.70995786	     -1.36794891	      5.81816872	      1.20689468	      0.87822394	      0.14558126	     -6.72725655	     -3.59574272	      3.28062293	     14.47904100	    -22.02210672	     36.62929160	     58.95431623	     68.74854891	    -34.47803667	    -24.96615394	     10.83016712	    -11.29776793	     23.61042060	     17.88628649	     59.99215152	    -19.33293328	    -13.22482887
     11.01200000	    -14.71672265	     -1.33279834	      5.85357511	      1.20676840	      0.87803736	      0.14485762	     -6.73071283	     -3.56168560	      3.32468698	     14.46487939	    -22.10284206	     36.59937774	     58.64489078	     68.72481820	    -34.50828520	    -24.97529921	     10.85295259	    -11.17848252	     23.64295264	     17.94597436	     60.00606523	    -19.33955410	    -13.23047730
     11.01600000	    -14.70706544	     -1.29200052	      5.90561502	      1.20672856	      0.87785670	      0.14405179	     -6.71628181	     -3.52539656	      3.38505316	     14.44675883	    -22.17245217	     36.55019933	     58.23640283	     68.68282169	    -34.54415062	    -24.97194642	     10.88566936	    -11.04696008	     23.68575060	     17.95732404	     60.01982027	    -19.35205263	    -13.22774726
     11.02000000	    -14.66038729	     -1.30509608	      5.89278620	      1.20729485	      0.87789451	      0.14451185	     -6.66818866	     -3.54362497	      3.36414479	     14.51977010	    -21.83310106	     36.51738887	     57.39996156	     68.59370326	    -34.77774815	    -24.99999983	     10.90103905	    -11.06274050	     23.79153226	     17.58951747	     60.02130702	    -19.39890203	    -13.18878741
     11.02400000	    -14.69892707	     -1.34457954	      5.91803030	      1.20672029	      0.87817502	      0.14534231	     -6.71274488	     -3.58469345	      3.38310570	     14.68987844	    -21.58825906	     36.59956949	     56.70895803	     68.64603267	    -35.60200694	    -24.99999983	     11.04649152	    -11.18444339	     23.95759545	     17.55710805	     60.02336991	    -19.33387829	    -13.22257247
     11.02800000	    -14.71642437	     -1.31179316	      5.95449887	      1.20651393	      0.87799093	      0.14473250	     -6.72758873	     -3.55239658	      3.42812621	     14.66876862	    -21.69412738	     36.61217915	     56.57160291	     68.66138090	    -35.62788362	    -24.99999983	     11.07425380	    -11.09943614	     23.97783364	     17.62448844	     60.03077254	    -19.32937286	    -13.22739672
     11.03200000	    -14.73076503	     -1.27429535	      5.98612087	      1.20634819	      0.87782923	      0.14404861	     -6.73852709	     -3.51491831	      3.46905807	     14.65387624	    -21.78782681	     36.61291060	     56.34644762	     68.66982053	    -35.65499940	    -24.99999983	     11.09169554	    -11.01246145	     23.99425817	     17.66046344	     60.03087480	    -19.32320902	    -13.22994899
     11.03600000	    -14.74032697	     -1.24362028	      6.01164709	      1.20626605	      0.87766388	      0.14339752	     -6.74508891	     -3.48410942	      3.50256222	     14.64032028	    -21.84419124	     36.61551258	     56.04130212	     68.67097262	    -35.68476963	    -24.99999983	     11.10685995	    -10.89998403	     24.02992644	     17.69660894	     60.04019542	    -19.29963309	    -13.22786242
     11.04000000	    -14.74329152	     -1.21306187	      6.02908312	      1.20621235	      0.87748748	      0.14275471	     -6.74515908	     -3.45317447	      3.52748780	     14.64805118	    -21.87951857	     36.59778935	     55.64507163	     68.65737707	    -35.73419335	    -24.99999983	     11.10393819	    -10.80407816	     24.08128420	     17.73305219	     60.05471891	    -19.21512884	    -13.22036828
     11.04400000	    -14.78812074	     -1.28149182	      5.91375729	      1.20540504	      0.87795500	      0.14461155	     -6.80385440	     -3.50924990	      3.39909399	     15.29135404	    -21.32534266	     37.19063749	     54.36931298	     69.09703666	    -36.90454803	    -24.99999983	     11.11724319	    -11.19993864	     24.43132054	     17.84622368	     60.19975034	    -17.85712452	    -13.05615554
     11.04800000	    -14.79431704	     -1.26305080	      5.96573940	      1.20527118	      0.87796769	      0.14423271	     -6.80748026	     -3.49515131	      3.45556211	     15.26949639	    -21.29873044	     37.11603799	     53.92452981	     69.08162520	    -37.17838251	    -24.99999983	     11.27247823	    -11.01690622	     24.14017161	     17.52377901	     60.00336456	    -17.69994284	    -13.03645595
     11.05200000	    -14.81479166	     -1.22840916	      5.99982429	      1.20503442	      0.87780280	      0.14358481	     -6.82524268	     -3.46032773	      3.49895222	     15.24687788	    -21.40073445	     37.08443712	     53.71559671	     69.06382689	    -37.20765298	    -24.99999983	     11.29426179	    -10.93499804	     24.14263203	     17.59257641	     60.00190958	    -17.66815116	    -13.05010935
